# xmcd CD database file
#
# Track frame offsets:
#	182
#	8067
#	17277
#	27600
#	38825
#	47720
#	55980
#	67850
#	79182
#	89737
#
# Disc length: 1309 seconds
#
# Revision: 2
# Processed by: cddbd v1.5.2PL0 Copyright (c) Steve Scherf et al.
# Submitted via: CDex 1.51
#
DISCID=76051b0a
DTITLE=Roger Miller - Greatest Performances
DYEAR=1998
DGENRE=Country
TTITLE0=Dang Me
TTITLE1=Chug-A-Lug
TTITLE2=Engine, Engine #9
TTITLE3=King of the Road
TTITLE4=England Swings
TTITLE5=Do-Wacka-Do
TTITLE6=Walkin' in the Sunshine
TTITLE7=Husbands and Wives
TTITLE8=Kansas City Star
TTITLE9=You Can't Rollerskate in a Buffalo Herd
EXTD=YEAR: 1998
EXTT0=
EXTT1=
EXTT2=
EXTT3=
EXTT4=
EXTT5=
EXTT6=
EXTT7=
EXTT8=
EXTT9=
PLAYORDER=
